<?xml version="1.0" encoding="UTF-8" standalone="no"?>
<svg
   xmlns:dc="http://purl.org/dc/elements/1.1/"
   xmlns:cc="http://creativecommons.org/ns#"
   xmlns:rdf="http://www.w3.org/1999/02/22-rdf-syntax-ns#"
   xmlns:svg="http://www.w3.org/2000/svg"
   xmlns="http://www.w3.org/2000/svg"
   xmlns:xlink="http://www.w3.org/1999/xlink"
   xmlns:sodipodi="http://sodipodi.sourceforge.net/DTD/sodipodi-0.dtd"
   xmlns:inkscape="http://www.inkscape.org/namespaces/inkscape"
   width="33"
   height="44"
   viewBox="0 0 33 44"
   version="1.1"
   id="svg95"
   sodipodi:docname="techheaven-icon.svg"
   inkscape:version="0.92.3 (2405546, 2018-03-11)">
  <metadata
     id="metadata99">
    <rdf:RDF>
      <cc:Work
         rdf:about="">
        <dc:format>image/svg+xml</dc:format>
        <dc:type
           rdf:resource="http://purl.org/dc/dcmitype/StillImage" />
      </cc:Work>
    </rdf:RDF>
  </metadata>
  <sodipodi:namedview
     pagecolor="#ffffff"
     bordercolor="#666666"
     borderopacity="1"
     objecttolerance="10"
     gridtolerance="10"
     guidetolerance="10"
     inkscape:pageopacity="0"
     inkscape:pageshadow="2"
     inkscape:window-width="1920"
     inkscape:window-height="1043"
     id="namedview97"
     showgrid="false"
     inkscape:zoom="1.77"
     inkscape:cx="101.12994"
     inkscape:cy="22"
     inkscape:window-x="0"
     inkscape:window-y="0"
     inkscape:window-maximized="1"
     inkscape:current-layer="svg95" />
  <title
     id="title2">Logo TH Full</title>
  <desc
     id="desc4">Created using Figma</desc>
  <rect
     id="rect6"
     fill="transparent"
     height="44"
     width="36.723164"
     y="0"
     x="0"
     style="stroke-width:0.42850417" />
  <g
     id="Symbol"
     transform="translate(101,357)">
    <g
       id="g20">
      <g
         id="Group">
        <g
           id="Vector">
          <use
             xlink:href="#path0_fill"
             transform="translate(-100.93,-333.23)"
             id="use16"
             style="fill:#ffffff"
             x="0"
             y="0"
             width="100%"
             height="100%" />
        </g>
      </g>
    </g>
    <g
       id="g28">
      <g
         id="g26">
        <g
           id="g24">
          <use
             xlink:href="#path1_fill"
             transform="translate(-101,-357)"
             id="use22"
             style="fill:#ffffff"
             x="0"
             y="0"
             width="100%"
             height="100%" />
        </g>
      </g>
    </g>
  </g>
  <defs
     id="defs93">
    <path
       id="path0_fill"
       d="M 31.052 -4.27342e-06C 31.052 0.245051 30.9119 1.40032 29.8267 3.01069C 29.3716 3.67584 28.7415 4.446 27.9013 5.21618L 16.0686 15.8236L 4.23595 5.25118C 3.39576 4.446 2.76562 3.71083 2.31052 3.04568C 1.22528 1.43532 1.08525 0.280061 1.08525 0.0350057C 0.525119 0.840187 0.0350068 1.89043 -1.06836e-06 3.04568C 0.0350068 4.20094 0.525119 5.25117 1.08525 6.05635C 1.85542 7.17661 2.76562 7.87677 2.76562 7.87677L 16.1036 19.8845L 29.4416 7.87677C 29.4416 7.87677 30.3518 7.17661 31.122 6.05635C 31.6821 5.25117 32.1722 4.20094 32.2072 3.04568C 32.1022 1.85542 31.6121 0.840185 31.052 -4.27342e-06Z" />
    <path
       id="path1_fill"
       d="M 31.122 13.8281C 30.3518 12.7079 29.4416 12.0077 29.4416 12.0077L 16.1036 -2.13671e-06L 2.76562 12.0077C 2.76562 12.0077 1.85542 12.7079 1.08525 13.8281C 0.52512 14.6333 0.0350079 15.6835 1.98997e-14 16.8388C 0.0350079 17.994 0.52512 19.0443 1.08525 19.8495C 1.85542 20.9697 2.76562 21.6699 2.76562 21.6699L 2.94066 21.8099L 5.14616 23.8054L 16.1386 33.7476L 27.0611 23.7703L 29.2666 21.7749L 29.4416 21.6349C 29.4416 21.6349 30.3518 20.9347 31.122 19.8145C 31.6821 19.0093 32.1722 17.959 32.2072 16.8038C 32.1722 15.6835 31.6821 14.6333 31.122 13.8281ZM 27.9363 19.0793L 27.0961 19.8495L 16.1736 9.87222L 5.18117 19.8145L 4.34097 19.0443C 3.50079 18.2391 2.87064 17.5039 2.41554 16.8388C 2.87064 16.1736 3.50079 15.4035 4.34097 14.6333L 16.1736 4.06091L 28.0063 14.6333C 28.8465 15.4385 29.4766 16.1736 29.9317 16.8388C 29.4066 17.5039 28.8115 18.2741 27.9363 19.0793Z" />
    <path
       id="path2_fill"
       d="M 4.27342e-06 7.21162L 4.27342e-06 4.79608L 2.66059 4.79608L 2.66059 4.27342e-06L 5.53124 4.27342e-06L 5.53124 4.79608L 9.87221 4.79608L 9.87221 7.21162L 5.53124 7.21162L 5.53124 14.4582C 5.53124 15.6485 5.70628 16.4537 6.09137 16.9088C 6.47645 17.3639 7.00157 17.574 7.66672 17.574C 8.22685 17.574 8.68195 17.5039 9.03203 17.3289C 9.3821 17.1539 9.76719 16.9088 10.1173 16.5587L 11.4126 18.3091C 10.8174 18.9042 10.1873 19.3243 9.52213 19.6044C 8.89199 19.8845 8.12182 20.0245 7.21161 20.0245C 5.63626 20.0245 4.481 19.6044 3.74584 18.7642C 3.01067 17.924 2.66059 16.5937 2.66059 14.8083L 2.66059 7.28164L 4.27342e-06 7.28164L 4.27342e-06 7.21162Z" />
    <path
       id="path3_fill"
       d="M 0 7.73674C 0 6.6515 0.175042 5.63627 0.560129 4.69105C 0.910207 3.74584 1.43532 2.94066 2.06546 2.2405C 2.69561 1.54035 3.50079 1.01522 4.411 0.595129C 5.3212 0.175035 6.30142 2.13671e-06 7.38667 2.13671e-06C 8.64695 2.13671e-06 9.7672 0.245059 10.6774 0.735169C 11.5876 1.22528 12.3228 1.85542 12.9179 2.6606C 13.513 3.46578 13.9331 4.37599 14.2132 5.42622C 14.4933 6.47646 14.6333 7.52669 14.6333 8.64694L 2.97567 8.64694C 3.01068 9.31209 3.15072 9.90723 3.39577 10.4674C 3.67583 11.0275 4.0259 11.5176 4.48101 11.9027C 4.93611 12.3228 5.42623 12.6378 5.98635 12.8479C 6.54648 13.0929 7.17661 13.198 7.80676 13.198C 9.06704 13.198 10.0823 12.9879 10.8875 12.5678C 11.6926 12.1477 12.2878 11.7276 12.6379 11.3075L 14.2482 13.0579C 14.0732 13.233 13.8281 13.478 13.478 13.7931C 13.128 14.0732 12.7079 14.3882 12.1477 14.6333C 11.6226 14.9134 10.9925 15.1234 10.2573 15.3335C 9.52214 15.5435 8.68196 15.6485 7.77176 15.6485C 6.6165 15.6485 5.56626 15.4735 4.62105 15.0884C 3.67583 14.7033 2.87065 14.1782 2.17049 13.478C 1.47034 12.7779 0.980225 11.9377 0.595139 10.9575C 0.210052 9.97725 0 8.892 0 7.73674ZM 2.90565 6.54647L 11.6226 6.54647C 11.5526 5.39121 11.1325 4.41099 10.4323 3.60581C 9.69718 2.80063 8.68196 2.41554 7.38667 2.41554C 6.72152 2.41554 6.09137 2.52057 5.56625 2.76562C 5.04113 3.01068 4.55103 3.29074 4.20095 3.67583C 3.81586 4.06091 3.5358 4.481 3.32575 5.00612C 3.04569 5.49623 2.94066 6.02135 2.90565 6.54647Z" />
    <path
       id="path4_fill"
       d="M 4.27342e-06 7.84176C 4.27342e-06 6.75652 0.175035 5.74129 0.560122 4.79608C 0.945208 3.85087 1.47033 3.01068 2.13548 2.31052C 2.80063 1.61036 3.64082 1.05023 4.58603 0.630137C 5.53124 0.210043 6.58148 1.98997e-14 7.73674 1.98997e-14C 8.99702 1.98997e-14 10.0823 0.210045 11.0275 0.665147C 11.9727 1.12025 12.7779 1.71539 13.478 2.45055L 11.5876 4.27096C 11.1325 3.71084 10.6074 3.29074 9.97725 2.97567C 9.34711 2.6606 8.61193 2.48556 7.73674 2.48556C 6.96656 2.48556 6.30142 2.62559 5.67127 2.90565C 5.07614 3.18571 4.55102 3.57081 4.13093 4.09592C 3.71084 4.58603 3.39576 5.18117 3.18571 5.81131C 2.97567 6.47646 2.83563 7.1416 2.83563 7.84176C 2.83563 8.54192 2.94066 9.20706 3.18571 9.8372C 3.39576 10.4673 3.71084 11.0625 4.13093 11.5526C 4.55102 12.0427 5.04113 12.4628 5.67127 12.7429C 6.26641 13.0229 6.96656 13.198 7.73674 13.198C 8.61193 13.198 9.38211 13.0229 10.0823 12.7079C 10.7824 12.3578 11.3426 11.9377 11.7977 11.3776L 13.548 13.233C 12.8829 13.9681 12.0777 14.5633 11.1325 15.0184C 10.1873 15.4735 9.06704 15.6835 7.77175 15.6835C 6.58148 15.6835 5.49624 15.4735 4.55103 15.0884C 3.60582 14.7033 2.76563 14.1432 2.10048 13.478C 1.43533 12.7779 0.945208 11.9727 0.560122 10.9925C 0.175035 10.0473 4.27342e-06 8.99702 4.27342e-06 7.84176Z" />
    <path
       id="path5_fill"
       d="M -4.27342e-06 21.2148L -4.27342e-06 0L 2.87065 0L 2.87065 8.61194C 3.04569 8.36688 3.29074 8.08682 3.5708 7.77175C 3.85087 7.49169 4.20094 7.21162 4.58603 6.96656C 4.97112 6.72151 5.46123 6.51147 5.98635 6.33643C 6.51146 6.16139 7.1066 6.09137 7.80676 6.09137C 9.73219 6.09137 11.1675 6.6515 12.0777 7.77175C 13.0229 8.892 13.478 10.4323 13.478 12.3578L 13.478 21.2148L 10.6074 21.2148L 10.6074 12.5678C 10.6074 11.2025 10.3273 10.1873 9.73219 9.52215C 9.13706 8.892 8.29687 8.54192 7.24663 8.54192C 6.40644 8.54192 5.74129 8.71696 5.18117 9.03203C 4.62104 9.38211 4.20094 9.80221 3.85086 10.3623C 3.53579 10.9225 3.29074 11.5176 3.15071 12.2177C 3.01067 12.9179 2.94067 13.6181 2.94067 14.3182L 2.94067 21.1798L -4.27342e-06 21.1798L -4.27342e-06 21.2148Z" />
    <path
       id="path6_fill"
       d="M 2.13671e-06 21.2148L 2.13671e-06 0L 2.87064 0L 2.87064 8.61194C 3.04568 8.36688 3.29073 8.08682 3.5708 7.77175C 3.85086 7.49169 4.20095 7.21162 4.58603 6.96656C 4.97112 6.72151 5.46123 6.51147 5.98635 6.33643C 6.51147 6.16139 7.10661 6.09137 7.80676 6.09137C 9.73219 6.09137 11.1675 6.6515 12.0777 7.77175C 13.0229 8.892 13.478 10.4323 13.478 12.3578L 13.478 21.2148L 10.6074 21.2148L 10.6074 12.5678C 10.6074 11.2025 10.3273 10.1873 9.73219 9.52215C 9.13706 8.892 8.29686 8.54192 7.24662 8.54192C 6.40643 8.54192 5.7413 8.71696 5.18117 9.03203C 4.62105 9.38211 4.20093 9.80221 3.85086 10.3623C 3.53579 10.9225 3.29073 11.5176 3.1507 12.2177C 3.01067 12.9179 2.94066 13.6181 2.94066 14.3182L 2.94066 21.1798L 2.13671e-06 21.1798L 2.13671e-06 21.2148Z" />
    <path
       id="path7_fill"
       d="M 8.54685e-06 7.73674C 8.54685e-06 6.6515 0.175039 5.63627 0.560126 4.69105C 0.910205 3.74584 1.43532 2.94066 2.06546 2.2405C 2.6956 1.54035 3.50079 1.01522 4.411 0.595129C 5.3212 0.175035 6.30142 2.13671e-06 7.38667 2.13671e-06C 8.64695 2.13671e-06 9.76721 0.245059 10.6774 0.735169C 11.5876 1.22528 12.3228 1.85542 12.9179 2.6606C 13.513 3.46578 13.9331 4.37599 14.2132 5.42622C 14.4933 6.47646 14.6333 7.52669 14.6333 8.64694L 2.97568 8.64694C 3.01069 9.31209 3.1507 9.90723 3.39576 10.4674C 3.67582 11.0275 4.02591 11.5176 4.48102 11.9027C 4.93612 12.3228 5.42622 12.6378 5.98635 12.8479C 6.54648 13.0579 7.17662 13.198 7.80677 13.198C 9.06705 13.198 10.0823 12.9879 10.8875 12.5678C 11.6926 12.1477 12.2878 11.7276 12.6379 11.3075L 14.2482 13.0579C 14.0732 13.233 13.8281 13.478 13.478 13.7931C 13.128 14.0732 12.7079 14.3882 12.1477 14.6333C 11.6226 14.9134 10.9925 15.1234 10.2573 15.3335C 9.52215 15.5435 8.68195 15.6485 7.77174 15.6485C 6.61648 15.6485 5.56625 15.4735 4.62103 15.0884C 3.67582 14.7033 2.87064 14.1782 2.17048 13.478C 1.50533 12.7779 0.980213 11.9377 0.595126 10.9575C 0.210039 9.97725 8.54685e-06 8.892 8.54685e-06 7.73674ZM 2.90566 6.54647L 11.6226 6.54647C 11.5526 5.39121 11.1325 4.41099 10.4324 3.60581C 9.69719 2.80063 8.68196 2.41554 7.38667 2.41554C 6.68651 2.41554 6.09137 2.52057 5.56625 2.76562C 5.04113 3.01068 4.55104 3.29074 4.20096 3.67583C 3.81587 4.06091 3.53581 4.481 3.32576 5.00612C 3.0457 5.49623 2.94067 6.02135 2.90566 6.54647Z" />
    <path
       id="path8_fill"
       d="M -8.54685e-06 10.9575C -8.54685e-06 9.3821 0.560135 8.08682 1.68039 7.14161C 2.80064 6.1964 4.37598 5.70629 6.47645 5.70629C 6.82653 5.70629 7.17662 5.70629 7.56171 5.7413C 7.94679 5.7763 8.29686 5.7763 8.64694 5.8113C 8.99702 5.84631 9.27709 5.84632 9.52214 5.88132C 9.7672 5.91633 9.94223 5.91633 10.0473 5.95133L 10.0473 5.42622C 10.0473 4.34097 9.69719 3.5708 9.03204 3.08069C 8.36689 2.62559 7.45667 2.38054 6.30141 2.38054C 5.18116 2.38054 4.27096 2.52056 3.64082 2.83564C 2.97567 3.15071 2.45055 3.43077 1.99545 3.78085L 0.66515 1.85542C 0.910205 1.64537 1.22527 1.43532 1.57535 1.22527C 1.92543 1.01522 2.34553 0.805183 2.83564 0.630144C 3.32575 0.455104 3.88588 0.315067 4.48102 0.175035C 5.07615 0.0350036 5.81131 -4.27342e-06 6.61649 -4.27342e-06C 8.50692 -4.27342e-06 10.0123 0.455107 11.0975 1.36531C 12.1827 2.27552 12.7429 3.60581 12.7429 5.28619L 12.7429 12.2878C 12.7429 12.8479 12.7429 13.373 12.7429 13.8981C 12.7429 14.4232 12.7429 14.8433 12.7779 15.2284L 10.1173 15.2284L 10.0473 13.443C 9.48713 14.1782 8.78697 14.7383 7.87677 15.0884C 6.96656 15.4385 6.05636 15.6485 5.07613 15.6485C 4.481 15.6485 3.85088 15.5785 3.25574 15.4035C 2.66061 15.2284 2.10048 14.9834 1.61037 14.5983C 1.12026 14.2132 0.700153 13.7581 0.42009 13.163C 0.175035 12.5328 -8.54685e-06 11.7976 -8.54685e-06 10.9575ZM 2.80062 10.8524C 2.80062 11.6576 3.0807 12.2528 3.60582 12.6728C 4.16595 13.0929 4.93611 13.303 5.91633 13.303C 6.47646 13.303 7.00158 13.198 7.49169 13.0229C 7.9818 12.8479 8.4369 12.5678 8.82198 12.2528C 9.20707 11.9377 9.52215 11.5526 9.7322 11.1325C 9.97726 10.7124 10.0823 10.2573 10.0823 9.83722L 10.0823 8.15684C 10.0123 8.12183 9.83722 8.12182 9.59216 8.08682C 9.34711 8.05181 9.06703 8.01681 8.75196 8.01681C 8.43689 7.9818 8.08683 7.98179 7.73675 7.94679C 7.38667 7.91178 7.03659 7.91178 6.68651 7.91178C 5.88133 7.91178 5.21617 8.01681 4.72606 8.19185C 4.23595 8.36689 3.85087 8.61194 3.5358 8.892C 3.25574 9.17207 3.04569 9.48714 2.94066 9.83722C 2.87065 10.2223 2.80062 10.5374 2.80062 10.8524Z" />
    <path
       id="path9_fill"
       d="M 4.27342e-06 -2.13671e-06L 3.29073 -2.13671e-06L 7.91177 11.5176L 12.4978 -2.13671e-06L 15.5785 -2.13671e-06L 9.24206 14.7733L 6.37144 14.7733L 4.27342e-06 -2.13671e-06Z" />
    <path
       id="path10_fill"
       d="M -4.27343e-06 7.73674C -4.27343e-06 6.6515 0.175048 5.63627 0.560135 4.69105C 0.910214 3.74584 1.43533 2.94066 2.06547 2.2405C 2.69561 1.54035 3.5008 1.01522 4.411 0.595129C 5.32121 0.175035 6.30143 2.13671e-06 7.38667 2.13671e-06C 8.64696 2.13671e-06 9.7672 0.245059 10.6774 0.735169C 11.5876 1.22528 12.3228 1.85542 12.9179 2.6606C 13.5131 3.46578 13.9332 4.37599 14.2132 5.42622C 14.4933 6.47646 14.6333 7.52669 14.6333 8.64694L 2.97567 8.64694C 3.01067 9.31209 3.15071 9.90723 3.39577 10.4674C 3.67583 11.0275 4.0259 11.5176 4.481 11.9027C 4.9361 12.3228 5.42623 12.6378 5.98636 12.8479C 6.54649 13.0579 7.17661 13.198 7.80675 13.198C 9.06704 13.198 10.0823 12.9879 10.8875 12.5678C 11.6926 12.1477 12.2878 11.7276 12.6379 11.3075L 14.2482 13.0579C 14.0732 13.233 13.8281 13.478 13.478 13.7931C 13.128 14.0732 12.7079 14.3882 12.1477 14.6333C 11.6226 14.9134 10.9925 15.1234 10.2573 15.3335C 9.52214 15.5435 8.68196 15.6485 7.77175 15.6485C 6.61649 15.6485 5.56626 15.4735 4.62104 15.0884C 3.67583 14.7033 2.87065 14.1782 2.17049 13.478C 1.50534 12.7779 0.980221 11.9377 0.595134 10.9575C 0.210047 9.97725 -4.27343e-06 8.892 -4.27343e-06 7.73674ZM 2.94067 6.54647L 11.6576 6.54647C 11.5876 5.39121 11.1675 4.41099 10.4674 3.60581C 9.7322 2.80063 8.71697 2.41554 7.42167 2.41554C 6.72152 2.41554 6.12638 2.52057 5.60126 2.76562C 5.07614 3.01068 4.58604 3.29074 4.23596 3.67583C 3.85088 4.06091 3.57081 4.481 3.36077 5.00612C 3.0457 5.49623 2.94067 6.02135 2.94067 6.54647Z" />
    <path
       id="path11_fill"
       d="M 8.54682e-06 0.350077L 2.73061 0.350077L 2.83563 2.55558C 3.01067 2.31052 3.25572 2.03045 3.53579 1.71538C 3.81585 1.40031 4.16594 1.12025 4.55102 0.875195C 4.97112 0.630139 5.42622 0.420097 5.95133 0.245057C 6.47645 0.0700179 7.10657 -2.13671e-06 7.77172 -2.13671e-06C 9.69715 -2.13671e-06 11.1325 0.56013 12.0427 1.68038C 12.9879 2.80063 13.443 4.34097 13.443 6.2664L 13.443 15.1234L 10.5723 15.1234L 10.5723 6.47645C 10.5723 5.11115 10.2923 4.09593 9.69715 3.43078C 9.10202 2.80063 8.26185 2.45055 7.17661 2.45055C 6.33642 2.45055 5.67126 2.62559 5.11114 2.94066C 4.55101 3.29074 4.13092 3.71084 3.78085 4.27096C 3.46578 4.83109 3.22072 5.42622 3.08069 6.12638C 2.94066 6.82653 2.87063 7.52669 2.87063 8.22685L 2.87063 15.0884L 0.0350078 15.0884L 0.0350078 3.53579C 0.0350078 2.87065 0.0350078 2.31052 0.0350078 1.82041C 0.0350078 1.3303 0.0350163 0.875195 8.54682e-06 0.350077Z" />
    <path
       id="path12_fill"
       d="M 4.27347e-06 3.22073L 4.27347e-06 0L 3.36079 0L 3.36079 3.22073L 4.27347e-06 3.22073Z" />
    <clipPath
       clip-rule="evenodd"
       id="clip-0">
      <path
         id="path8"
         fill="transparent"
         d="M -721 -417L 719 -417L 719 2125L -721 2125L -721 -417Z" />
    </clipPath>
    <clipPath
       style="clip-rule:evenodd"
       id="clip-1">
      <path
         inkscape:connector-curvature="0"
         id="path13"
         fill="transparent"
         d="M -101,-357 H 99 v 43.655 h -200 z" />
    </clipPath>
  </defs>
</svg>
