<?xml version="1.0" encoding="UTF-8"?>
<!-- Generator: Adobe Illustrator 21.1.0, SVG Export Plug-In . SVG Version: 6.00 Build 0)  -->
<svg version="1.1" id="Vrstva_1" xmlns="http://www.w3.org/2000/svg" xmlns:xlink="http://www.w3.org/1999/xlink" x="0px" y="0px" viewBox="0 0 54 60" style="enable-background:new 0 0 54 60;" xml:space="preserve">
<style type="text/css">
	.st0{fill:url(#marker-icon_1_);}
	.st1{fill:url(#social-networks-icon_1_);}
	.st2{opacity:0.1;fill:#FFFFFF;}
	.st3{fill:url(#flame-footer_1_);}
	.st4{fill:#FFFFFF;}
</style>
<linearGradient id="flame-footer_1_" gradientUnits="userSpaceOnUse" x1="27" y1="59.494" x2="27" y2="0.506">
	<stop offset="0" style="stop-color:#E07400"/>
	<stop offset="1" style="stop-color:#C10115"/>
</linearGradient>
<path id="flame-footer" class="st3" d="M27.7,0.9l12.8,12.8c0.6,0.6,0.6,1.5,0,2L27.7,28.5c-0.6,0.6-1.5,0.6-2,0L12.9,15.7  c-0.6-0.6-0.6-1.5,0-2L25.7,0.9C26.2,0.4,27.1,0.4,27.7,0.9z M33.9,23.7l-5.5,5.5c-0.6,0.6-0.6,1.5,0,2l5.5,5.5c0.6,0.6,1.5,0.6,2,0  l5.5-5.5c0.6-0.6,0.6-1.5,0-2l-5.5-5.5C35.3,23.2,34.4,23.2,33.9,23.7z M39.4,18.2L36.6,21c-0.3,0.3-0.3,0.9,0,1.2l2.8,2.8  c0.3,0.3,0.9,0.3,1.2,0l2.8-2.8c0.3-0.3,0.3-0.9,0-1.2l-2.8-2.8C40.3,17.9,39.7,17.9,39.4,18.2z M27.2,33l-4.1,4.1  c-0.3,0.3-0.3,0.9,0,1.2l4.1,4.1c0.3,0.3,0.9,0.3,1.2,0l4.1-4.1c0.3-0.3,0.3-0.9,0-1.2L28.4,33C28.1,32.7,27.6,32.7,27.2,33z   M21.9,41.5l-4.1,4.1c-0.3,0.3-0.3,0.9,0,1.2l4.1,4.1c0.3,0.3,0.9,0.3,1.2,0l4.1-4.1c0.3-0.3,0.3-0.9,0-1.2l-4.1-4.1  C22.8,41.1,22.3,41.1,21.9,41.5z M39.5,35.2l-2.2,2.2c-0.3,0.3-0.3,0.9,0,1.2l2.2,2.2c0.3,0.3,0.9,0.3,1.2,0l2.2-2.2  c0.3-0.3,0.3-0.9,0-1.2l-2.2-2.2C40.4,34.9,39.9,34.9,39.5,35.2z M10.4,4.8L6.8,8.4c-0.3,0.3-0.3,0.9,0,1.2l3.6,3.6  c0.3,0.3,0.9,0.3,1.2,0l3.6-3.6c0.3-0.3,0.3-0.9,0-1.2l-3.6-3.6C11.3,4.4,10.7,4.4,10.4,4.8z M7.9,28.4L5.3,31  c-0.3,0.3-0.3,0.9,0,1.2l2.6,2.6c0.3,0.3,0.9,0.3,1.2,0l2.6-2.6c0.3-0.3,0.3-0.9,0-1.2l-2.6-2.6C8.8,28.1,8.2,28.1,7.9,28.4z   M21,26.6l-1.5,1.5c-0.3,0.3-0.3,0.7,0,1l1.5,1.5c0.3,0.3,0.7,0.3,1,0l1.5-1.5c0.3-0.3,0.3-0.7,0-1L22,26.6  C21.7,26.3,21.3,26.3,21,26.6z M27.7,48.7l-1.5,1.5c-0.3,0.3-0.3,0.7,0,1l1.5,1.5c0.3,0.3,0.7,0.3,1,0l1.5-1.5c0.3-0.3,0.3-0.7,0-1  l-1.5-1.5C28.4,48.5,27.9,48.5,27.7,48.7z M30.8,52.9l-1.3,1.3c-0.2,0.2-0.2,0.6,0,0.8l1.3,1.3c0.2,0.2,0.6,0.2,0.8,0l1.3-1.3  c0.2-0.2,0.2-0.6,0-0.8l-1.3-1.3C31.4,52.7,31.1,52.7,30.8,52.9z M24,29.6l-1.5,1.5c-0.3,0.3-0.3,0.7,0,1l1.5,1.5  c0.3,0.3,0.7,0.3,1,0l1.5-1.5c0.3-0.3,0.3-0.7,0-1L25,29.6C24.8,29.3,24.3,29.3,24,29.6z M5.2,11l-3,3c-0.3,0.3-0.3,0.9,0,1.2l3,3  c0.3,0.3,0.9,0.3,1.2,0l3-3c0.3-0.3,0.3-0.9,0-1.2l-3-3C6.1,10.7,5.6,10.7,5.2,11z M5.2,35l-0.9,0.9c-0.3,0.3-0.3,0.7,0,1l0.9,0.9  c0.3,0.3,0.7,0.3,1,0l0.9-0.9c0.3-0.3,0.3-0.7,0-1L6.2,35C5.9,34.7,5.5,34.7,5.2,35z M2.4,17.9L1,19.3c-0.2,0.2-0.2,0.6,0,0.8  l1.4,1.4c0.2,0.2,0.6,0.2,0.8,0l1.4-1.4c0.2-0.2,0.2-0.6,0-0.8l-1.4-1.4C3,17.7,2.7,17.7,2.4,17.9z M8.1,37.6L7,38.7  c-0.2,0.2-0.2,0.6,0,0.8l1.1,1.1c0.2,0.2,0.6,0.2,0.8,0l1.1-1.1c0.2-0.2,0.2-0.6,0-0.8l-1.1-1.1C8.7,37.3,8.3,37.3,8.1,37.6z   M0.9,21.7l-0.7,0.7c-0.1,0.1-0.1,0.3,0,0.4l0.7,0.7c0.1,0.1,0.3,0.1,0.4,0l0.7-0.7c0.1-0.1,0.1-0.3,0-0.4l-0.7-0.7  C1.2,21.6,1,21.6,0.9,21.7z M18.3,49.3L17.7,50c-0.1,0.1-0.1,0.3,0,0.4l0.7,0.7c0.1,0.1,0.3,0.1,0.4,0l0.7-0.7  c0.1-0.1,0.1-0.3,0-0.4l-0.7-0.7C18.6,49.2,18.4,49.2,18.3,49.3z M30.8,57.2l-0.9,0.9c-0.1,0.1-0.1,0.3,0,0.4l0.9,0.9  c0.1,0.1,0.3,0.1,0.4,0l0.9-0.9c0.1-0.1,0.1-0.3,0-0.4l-0.9-0.9C31.1,57.1,30.9,57.1,30.8,57.2z M8.8,20.2l-0.7,0.7  c-0.1,0.1-0.1,0.3,0,0.4l0.7,0.7c0.1,0.1,0.3,0.1,0.4,0l0.7-0.7c0.1-0.1,0.1-0.3,0-0.4l-0.7-0.7C9.1,20.1,8.9,20.1,8.8,20.2z   M7.4,18.7l-0.7,0.7c-0.1,0.1-0.1,0.3,0,0.4l0.7,0.7c0.1,0.1,0.3,0.1,0.4,0l0.7-0.7c0.1-0.1,0.1-0.3,0-0.4l-0.7-0.7  C7.7,18.6,7.5,18.6,7.4,18.7z M13.4,19.2l-5,5c-0.3,0.3-0.3,0.9,0,1.2l5,5c0.3,0.3,0.9,0.3,1.2,0l5-5c0.3-0.3,0.3-0.9,0-1.2l-5-5  C14.3,18.9,13.7,18.9,13.4,19.2z M41.2,3.6l-3.8,3.8C37,7.8,37,8.5,37.4,9l3.8,3.8c0.4,0.4,1.2,0.4,1.6,0L46.6,9  c0.4-0.4,0.4-1.2,0-1.6l-3.8-3.8C42.4,3.1,41.7,3.1,41.2,3.6z M35.1,1.2L33,3.4c-0.3,0.3-0.3,0.9,0,1.2l2.1,2.1  C35.4,7,36,7,36.3,6.7l2.1-2.1c0.3-0.3,0.3-0.9,0-1.2l-2.1-2.1C36,0.9,35.4,0.9,35.1,1.2z M16.3,2.6l-1.9,1.9c-0.3,0.3-0.3,0.7,0,1  l1.9,1.9c0.3,0.3,0.7,0.3,1,0l1.9-1.9c0.3-0.3,0.3-0.7,0-1l-1.9-1.9C17.1,2.3,16.6,2.3,16.3,2.6z M10.6,16l-1.5,1.5  c-0.2,0.2-0.2,0.6,0,0.8l1.5,1.5c0.2,0.2,0.6,0.2,0.8,0l1.5-1.5c0.2-0.2,0.2-0.6,0-0.8L11.4,16C11.2,15.8,10.8,15.8,10.6,16z   M50.5,21.3l-1.9,1.9c-0.3,0.3-0.3,0.9,0,1.2l1.9,1.9c0.3,0.3,0.9,0.3,1.2,0l1.9-1.9c0.3-0.3,0.3-0.9,0-1.2l-1.9-1.9  C51.3,21,50.8,21,50.5,21.3z M31.3,0.9l-0.6,0.6c-0.2,0.2-0.2,0.6,0,0.8l0.6,0.6c0.2,0.2,0.6,0.2,0.8,0l0.6-0.6  c0.2-0.2,0.2-0.6,0-0.8l-0.6-0.6C31.9,0.6,31.5,0.6,31.3,0.9z M20.8,1.2l-1,1c-0.1,0.1-0.1,0.3,0,0.4l1,1c0.1,0.1,0.3,0.1,0.4,0l1-1  c0.1-0.1,0.1-0.3,0-0.4l-1-1C21,1.1,20.9,1.1,20.8,1.2z M51.2,27.8l-1,1c-0.1,0.1-0.1,0.3,0,0.4l1,1c0.1,0.1,0.3,0.1,0.4,0l1-1  c0.1-0.1,0.1-0.3,0-0.4l-1-1C51.5,27.6,51.3,27.6,51.2,27.8z M41.9,32.9l-1,1c-0.1,0.1-0.1,0.3,0,0.4l1,1c0.1,0.1,0.3,0.1,0.4,0l1-1  c0.1-0.1,0.1-0.3,0-0.4l-1-1C42.2,32.8,42,32.8,41.9,32.9z M41,41.5l-1,1c-0.1,0.1-0.1,0.3,0,0.4l1,1c0.1,0.1,0.3,0.1,0.4,0l1-1  c0.1-0.1,0.1-0.3,0-0.4l-1-1C41.3,41.4,41.1,41.4,41,41.5z M46.8,11l-4.2,4.2c-0.6,0.6-0.6,1.5,0,2l4.2,4.2c0.6,0.6,1.5,0.6,2,0  l4.2-4.2c0.6-0.6,0.6-1.5,0-2L48.8,11C48.3,10.4,47.4,10.4,46.8,11z"/>
</svg>